<?xml version="1.0" encoding="UTF-8" standalone="no"?><svg xmlns:svg="http://www.w3.org/2000/svg" xmlns="http://www.w3.org/2000/svg" xmlns:xlink="http://www.w3.org/1999/xlink" version="1.0" width="64px" height="64px" viewBox="0 0 128 128" xml:space="preserve"><rect x="0" y="0" width="100%" height="100%" fill="#FFFFFF" /><g><path d="M61.5.05v18.52a45.2 45.2 0 0 0-15.52 3.62l-9.3-16.1A63.67 63.67 0 0 1 61.5.05z" fill="#ca2525"/><path d="M61.5.05v18.52a45.2 45.2 0 0 0-15.52 3.62l-9.3-16.1A63.67 63.67 0 0 1 61.5.05z" fill="#fef9f9" transform="rotate(30 64 64)"/><path d="M61.5.05v18.52a45.2 45.2 0 0 0-15.52 3.62l-9.3-16.1A63.67 63.67 0 0 1 61.5.05z" fill="#faebeb" transform="rotate(60 64 64)"/><path d="M61.5.05v18.52a45.2 45.2 0 0 0-15.52 3.62l-9.3-16.1A63.67 63.67 0 0 1 61.5.05z" fill="#f6dada" transform="rotate(90 64 64)"/><path d="M61.5.05v18.52a45.2 45.2 0 0 0-15.52 3.62l-9.3-16.1A63.67 63.67 0 0 1 61.5.05z" fill="#f1c7c7" transform="rotate(120 64 64)"/><path d="M61.5.05v18.52a45.2 45.2 0 0 0-15.52 3.62l-9.3-16.1A63.67 63.67 0 0 1 61.5.05z" fill="#edb3b3" transform="rotate(150 64 64)"/><path d="M61.5.05v18.52a45.2 45.2 0 0 0-15.52 3.62l-9.3-16.1A63.67 63.67 0 0 1 61.5.05z" fill="#e89e9e" transform="rotate(180 64 64)"/><path d="M61.5.05v18.52a45.2 45.2 0 0 0-15.52 3.62l-9.3-16.1A63.67 63.67 0 0 1 61.5.05z" fill="#e28787" transform="rotate(210 64 64)"/><path d="M61.5.05v18.52a45.2 45.2 0 0 0-15.52 3.62l-9.3-16.1A63.67 63.67 0 0 1 61.5.05z" fill="#dd7272" transform="rotate(240 64 64)"/><path d="M61.5.05v18.52a45.2 45.2 0 0 0-15.52 3.62l-9.3-16.1A63.67 63.67 0 0 1 61.5.05z" fill="#d85d5d" transform="rotate(270 64 64)"/><path d="M61.5.05v18.52a45.2 45.2 0 0 0-15.52 3.62l-9.3-16.1A63.67 63.67 0 0 1 61.5.05z" fill="#d34949" transform="rotate(300 64 64)"/><path d="M61.5.05v18.52a45.2 45.2 0 0 0-15.52 3.62l-9.3-16.1A63.67 63.67 0 0 1 61.5.05z" fill="#ce3737" transform="rotate(330 64 64)"/><animateTransform attributeName="transform" type="rotate" values="0 64 64;30 64 64;60 64 64;90 64 64;120 64 64;150 64 64;180 64 64;210 64 64;240 64 64;270 64 64;300 64 64;330 64 64" calcMode="discrete" dur="1200ms" repeatCount="indefinite"></animateTransform></g></svg>